<?xml version="1.0" encoding="utf-8"?>
<!-- Generator: Adobe Illustrator 22.0.1, SVG Export Plug-In . SVG Version: 6.00 Build 0)  -->
<svg version="1.1" id="Capa_1" xmlns="http://www.w3.org/2000/svg" xmlns:xlink="http://www.w3.org/1999/xlink" x="0px" y="0px"
	 viewBox="0 0 500 500" style="enable-background:new 0 0 500 500;" xml:space="preserve">
<style type="text/css">
	.st0{fill:#46B12E;}
</style>
<path class="st0" d="M99,133v231l173,30V103L99,133z M201.3,298.6l-14.5-36.7l-15.5,34.7l-19.4-1.5l22-48.3l-19.6-49.3l19.7-0.9
	l12.2,33.9l15.8-36.1l20.4-1.5l-23.1,53.7l24.1,53.2L201.3,298.6z"/>
<path class="st0" d="M395.1,136.6H280.2v16.6h43.9v30.2h-43.9v9.1h43.9v30.2h-43.9v9.1h43.9V262h-43.9v9.1h43.9v30.2h-43.9v9.1h43.9
	v30.2h-43.9v19.7h114.9c6.3,0,7.6-1.2,7.6-7.6V144.2C402.7,137.9,401.5,136.6,395.1,136.6z M383,340.7h-49.9v-30.2H383V340.7z
	 M383,301.4h-49.9v-30.2H383V301.4z M383,262.1h-49.9v-30.2H383V262.1z M383,222.8h-49.9v-30.2H383V222.8z M383,183.5h-49.9v-30.2
	H383V183.5z"/>
</svg>
